<svg width="348" height="126" viewBox="0 0 348 126" fill="none" xmlns="http://www.w3.org/2000/svg">
<path d="M98.643 7.62939e-06H0C38.7968 28.0875 84.8684 55.725 128.22 75.6038C243.74 128.504 344.642 136.509 402 114.653V99.2097C374.093 111.264 326.797 111.098 264.473 96.6141C207.991 83.3783 118.229 46.7178 66.2039 14.8564C56.3134 8.84541 59.8891 9.95675 101.792 25.2633C243.678 77.174 351.678 78.7555 345.088 20.8219C344.531 15.9276 341.608 8.66233 337.071 7.62939e-06H317.812C349.823 55.1482 303.319 58.0702 163.658 21.9233C150.447 18.5707 124.441 9.62833 98.643 7.62939e-06Z" fill="url(#paint0_linear_31_143)"/>
<defs>
<linearGradient id="paint0_linear_31_143" x1="202.614" y1="177.03" x2="202.614" y2="-45.1828" gradientUnits="userSpaceOnUse">
<stop stop-color="#00D4E4"/>
<stop offset="0.78125" stop-color="#1F59EE"/>
</linearGradient>
</defs>
</svg>
