<svg width="100" height="41" viewBox="0 0 100 41" fill="none" xmlns="http://www.w3.org/2000/svg">
<rect width="100" height="41" rx="4" fill="#84AD40"/>
<path d="M33.0043 26V15.8182H36.8224C37.6046 15.8182 38.2609 15.964 38.7912 16.2557C39.3248 16.5473 39.7275 16.9484 39.9993 17.4588C40.2744 17.9659 40.4119 18.5426 40.4119 19.1889C40.4119 19.8419 40.2744 20.4219 39.9993 20.929C39.7242 21.4361 39.3182 21.8355 38.7812 22.1271C38.2443 22.4155 37.5831 22.5597 36.7976 22.5597H34.267V21.0433H36.549C37.0064 21.0433 37.3809 20.9638 37.6726 20.8047C37.9643 20.6456 38.1797 20.4268 38.3189 20.1484C38.4614 19.87 38.5327 19.5502 38.5327 19.1889C38.5327 18.8277 38.4614 18.5095 38.3189 18.2344C38.1797 17.9593 37.9626 17.7455 37.6676 17.593C37.3759 17.4373 36.9998 17.3594 36.5391 17.3594H34.8487V26H33.0043ZM41.9345 26V18.3636H43.7342V26H41.9345ZM42.8393 17.2798C42.5543 17.2798 42.309 17.1854 42.1035 16.9964C41.898 16.8042 41.7953 16.5739 41.7953 16.3054C41.7953 16.0336 41.898 15.8033 42.1035 15.6143C42.309 15.4221 42.5543 15.326 42.8393 15.326C43.1277 15.326 43.3729 15.4221 43.5751 15.6143C43.7806 15.8033 43.8833 16.0336 43.8833 16.3054C43.8833 16.5739 43.7806 16.8042 43.5751 16.9964C43.3729 17.1854 43.1277 17.2798 42.8393 17.2798ZM45.5849 26V18.3636H47.3299V19.6364H47.4094C47.5487 19.1955 47.7873 18.8558 48.1254 18.6172C48.4667 18.3752 48.8562 18.2543 49.2937 18.2543C49.3931 18.2543 49.5041 18.2592 49.6268 18.2692C49.7527 18.2758 49.8571 18.2874 49.94 18.304V19.9595C49.8638 19.933 49.7428 19.9098 49.5771 19.8899C49.4147 19.8667 49.2572 19.8551 49.1048 19.8551C48.7766 19.8551 48.4817 19.9264 48.2198 20.0689C47.9613 20.2081 47.7575 20.402 47.6083 20.6506C47.4592 20.8991 47.3846 21.1858 47.3846 21.5107V26H45.5849ZM52.7763 23.6037L52.7713 21.4311H53.0597L55.804 18.3636H57.907L54.5312 22.1222H54.1584L52.7763 23.6037ZM51.1357 26V15.8182H52.9354V26H51.1357ZM55.9283 26L53.4425 22.5249L54.6555 21.2571L58.081 26H55.9283ZM62.9196 18.3636V19.7557H58.5297V18.3636H62.9196ZM59.6135 16.5341H61.4132V23.7031C61.4132 23.9451 61.4496 24.1307 61.5225 24.2599C61.5988 24.3859 61.6982 24.4721 61.8208 24.5185C61.9435 24.5649 62.0794 24.5881 62.2285 24.5881C62.3412 24.5881 62.444 24.5798 62.5368 24.5632C62.6329 24.5466 62.7058 24.5317 62.7555 24.5185L63.0588 25.9254C62.9627 25.9586 62.8251 25.995 62.6461 26.0348C62.4705 26.0746 62.255 26.0978 61.9998 26.1044C61.5491 26.1177 61.1431 26.0497 60.7818 25.9006C60.4205 25.7481 60.1338 25.5128 59.9217 25.1946C59.7129 24.8764 59.6101 24.4787 59.6135 24.0014V16.5341ZM64.4247 26V18.3636H66.2244V26H64.4247ZM65.3295 17.2798C65.0445 17.2798 64.7992 17.1854 64.5938 16.9964C64.3883 16.8042 64.2855 16.5739 64.2855 16.3054C64.2855 16.0336 64.3883 15.8033 64.5938 15.6143C64.7992 15.4221 65.0445 15.326 65.3295 15.326C65.6179 15.326 65.8632 15.4221 66.0653 15.6143C66.2708 15.8033 66.3736 16.0336 66.3736 16.3054C66.3736 16.5739 66.2708 16.8042 66.0653 16.9964C65.8632 17.1854 65.6179 17.2798 65.3295 17.2798Z" fill="white"/>
</svg>
