<svg width="132" height="21" viewBox="0 0 132 21" fill="none" xmlns="http://www.w3.org/2000/svg">
<path d="M3.5957 6.26367L3.69727 7.62207C4.50977 6.5472 5.57194 6.00977 6.88379 6.00977C9.24512 6.00977 10.4596 7.66439 10.5273 10.9736V20H6.92188V11.2402C6.92188 10.4616 6.80339 9.89876 6.56641 9.55176C6.33789 9.19629 5.93164 9.01855 5.34766 9.01855C4.69596 9.01855 4.18815 9.35286 3.82422 10.0215V20H0.21875V6.26367H3.5957ZM16.875 20H13.2695V6.26367H16.875V20ZM13.1045 2.70898C13.1045 2.15039 13.2822 1.69336 13.6377 1.33789C13.9932 0.982422 14.4671 0.804688 15.0596 0.804688C15.652 0.804688 16.126 0.982422 16.4814 1.33789C16.8369 1.69336 17.0146 2.15039 17.0146 2.70898C17.0146 3.25911 16.8369 3.71615 16.4814 4.08008C16.1344 4.44401 15.6605 4.62598 15.0596 4.62598C14.4587 4.62598 13.9805 4.44401 13.625 4.08008C13.278 3.71615 13.1045 3.25911 13.1045 2.70898ZM24.6191 17.2705C25.6602 17.2705 26.1891 16.5934 26.2061 15.2393H29.583C29.5661 16.7373 29.1048 17.9476 28.1992 18.8701C27.2936 19.7926 26.1257 20.2539 24.6953 20.2539C22.9264 20.2539 21.5765 19.7038 20.6455 18.6035C19.7145 17.5033 19.2406 15.8825 19.2236 13.7412V12.6494C19.2236 10.4912 19.6807 8.84505 20.5947 7.71094C21.5173 6.57682 22.8757 6.00977 24.6699 6.00977C26.1849 6.00977 27.3783 6.47949 28.25 7.41895C29.1217 8.34993 29.5661 9.67448 29.583 11.3926H26.2061C26.1976 10.6224 26.0706 10.0299 25.8252 9.61523C25.5798 9.20052 25.1735 8.99316 24.6064 8.99316C23.9801 8.99316 23.5316 9.21745 23.2607 9.66602C22.9899 10.1061 22.846 10.9652 22.8291 12.2432V13.6396C22.8291 14.7568 22.8841 15.5397 22.9941 15.9883C23.1042 16.4284 23.2861 16.7542 23.54 16.9658C23.7939 17.1689 24.1536 17.2705 24.6191 17.2705ZM38.1396 20C38.0381 19.7884 37.9365 19.4329 37.835 18.9336C37.1917 19.8138 36.32 20.2539 35.2197 20.2539C34.0687 20.2539 33.1123 19.873 32.3506 19.1113C31.5973 18.3496 31.2207 17.3636 31.2207 16.1533C31.2207 14.7145 31.6777 13.6016 32.5918 12.8145C33.5143 12.0273 34.8389 11.6253 36.5654 11.6084H37.6572V10.5039C37.6572 9.88607 37.5514 9.4502 37.3398 9.19629C37.1283 8.94238 36.8193 8.81543 36.4131 8.81543C35.516 8.81543 35.0674 9.34017 35.0674 10.3896H31.4746C31.4746 9.12012 31.9486 8.07487 32.8965 7.25391C33.8529 6.42448 35.0589 6.00977 36.5146 6.00977C38.0212 6.00977 39.1849 6.40332 40.0059 7.19043C40.8353 7.96908 41.25 9.08626 41.25 10.542V17.0039C41.2669 18.1888 41.4362 19.1156 41.7578 19.7842V20H38.1396ZM36.0195 17.4355C36.4173 17.4355 36.7559 17.3551 37.0352 17.1943C37.3145 17.0335 37.5218 16.8431 37.6572 16.623V13.7666H36.7939C36.1846 13.7666 35.7021 13.9613 35.3467 14.3506C34.9997 14.7399 34.8262 15.2604 34.8262 15.9121C34.8262 16.9277 35.224 17.4355 36.0195 17.4355ZM56.624 9.72949L55.4307 9.62793C54.4489 9.62793 53.7845 10.0596 53.4375 10.9229V20H49.832V6.26367H53.2217L53.3232 7.74902C53.8903 6.58952 54.6732 6.00977 55.6719 6.00977C56.0781 6.00977 56.4082 6.06478 56.6621 6.1748L56.624 9.72949ZM63.7715 20.2539C61.9264 20.2539 60.4876 19.7038 59.4551 18.6035C58.4225 17.5033 57.9062 15.929 57.9062 13.8809V12.7891C57.9062 10.6224 58.3802 8.95085 59.3281 7.77441C60.276 6.59798 61.6344 6.00977 63.4033 6.00977C65.1299 6.00977 66.429 6.56413 67.3008 7.67285C68.1725 8.77311 68.6169 10.4066 68.6338 12.5732V14.3379H61.4863C61.5371 15.3535 61.7614 16.0983 62.1592 16.5723C62.557 17.0378 63.1706 17.2705 64 17.2705C65.2018 17.2705 66.2048 16.86 67.0088 16.0391L68.418 18.21C67.9779 18.8193 67.3389 19.3145 66.501 19.6953C65.6631 20.0677 64.7533 20.2539 63.7715 20.2539ZM61.5117 11.8242H65.1045V11.4941C65.0876 10.6732 64.9521 10.0511 64.6982 9.62793C64.4443 9.20475 64.0042 8.99316 63.3779 8.99316C62.7516 8.99316 62.2946 9.21745 62.0068 9.66602C61.7275 10.1146 61.5625 10.834 61.5117 11.8242ZM75.2227 14.7061L74.2578 15.7852V20H70.665V0.5H74.2578V11.0371L74.7021 10.377L77.1904 6.26367H81.4688L77.4824 11.9258L81.8496 20H77.7363L75.2227 14.7061ZM86.877 20H83.2715V0.5H86.877V20ZM96.1826 20C96.0811 19.7884 95.9795 19.4329 95.8779 18.9336C95.2347 19.8138 94.363 20.2539 93.2627 20.2539C92.1117 20.2539 91.1553 19.873 90.3936 19.1113C89.6403 18.3496 89.2637 17.3636 89.2637 16.1533C89.2637 14.7145 89.7207 13.6016 90.6348 12.8145C91.5573 12.0273 92.8818 11.6253 94.6084 11.6084H95.7002V10.5039C95.7002 9.88607 95.5944 9.4502 95.3828 9.19629C95.1712 8.94238 94.8623 8.81543 94.4561 8.81543C93.5589 8.81543 93.1104 9.34017 93.1104 10.3896H89.5176C89.5176 9.12012 89.9915 8.07487 90.9395 7.25391C91.8958 6.42448 93.1019 6.00977 94.5576 6.00977C96.0641 6.00977 97.2279 6.40332 98.0488 7.19043C98.8783 7.96908 99.293 9.08626 99.293 10.542V17.0039C99.3099 18.1888 99.4792 19.1156 99.8008 19.7842V20H96.1826ZM94.0625 17.4355C94.4603 17.4355 94.7988 17.3551 95.0781 17.1943C95.3574 17.0335 95.5648 16.8431 95.7002 16.623V13.7666H94.8369C94.2275 13.7666 93.7451 13.9613 93.3896 14.3506C93.0426 14.7399 92.8691 15.2604 92.8691 15.9121C92.8691 16.9277 93.2669 17.4355 94.0625 17.4355ZM105.272 6.26367L105.374 7.5332C106.178 6.51758 107.24 6.00977 108.561 6.00977C109.932 6.00977 110.901 6.6276 111.468 7.86328C112.255 6.6276 113.376 6.00977 114.832 6.00977C117.236 6.00977 118.467 7.67285 118.526 10.999V20H114.934V11.2275C114.934 10.432 114.824 9.86491 114.604 9.52637C114.383 9.18783 114.011 9.01855 113.486 9.01855C112.818 9.01855 112.318 9.42904 111.988 10.25L112.014 10.6816V20H108.421V11.2529C108.421 10.4658 108.315 9.89876 108.104 9.55176C107.892 9.19629 107.515 9.01855 106.974 9.01855C106.356 9.01855 105.865 9.35286 105.501 10.0215V20H101.908V6.26367H105.272ZM127.718 20C127.616 19.7884 127.515 19.4329 127.413 18.9336C126.77 19.8138 125.898 20.2539 124.798 20.2539C123.647 20.2539 122.69 19.873 121.929 19.1113C121.175 18.3496 120.799 17.3636 120.799 16.1533C120.799 14.7145 121.256 13.6016 122.17 12.8145C123.092 12.0273 124.417 11.6253 126.144 11.6084H127.235V10.5039C127.235 9.88607 127.13 9.4502 126.918 9.19629C126.706 8.94238 126.397 8.81543 125.991 8.81543C125.094 8.81543 124.646 9.34017 124.646 10.3896H121.053C121.053 9.12012 121.527 8.07487 122.475 7.25391C123.431 6.42448 124.637 6.00977 126.093 6.00977C127.599 6.00977 128.763 6.40332 129.584 7.19043C130.413 7.96908 130.828 9.08626 130.828 10.542V17.0039C130.845 18.1888 131.014 19.1156 131.336 19.7842V20H127.718ZM125.598 17.4355C125.995 17.4355 126.334 17.3551 126.613 17.1943C126.893 17.0335 127.1 16.8431 127.235 16.623V13.7666H126.372C125.763 13.7666 125.28 13.9613 124.925 14.3506C124.578 14.7399 124.404 15.2604 124.404 15.9121C124.404 16.9277 124.802 17.4355 125.598 17.4355Z" fill="#878B9B"/>
</svg>
