<svg width="746" height="258" viewBox="0 0 746 258" fill="none" xmlns="http://www.w3.org/2000/svg">
<path d="M562.946 0H746C674.004 57.5125 588.508 114.104 508.06 154.808C293.686 263.127 106.441 279.518 0 234.766V206.5C51.7883 231.183 139.555 227.486 255.212 197.829C360.026 170.727 526.6 95.6602 623.144 30.4202C641.498 18.112 634.863 20.3876 557.102 51.7296C293.801 158.023 93.3834 161.261 105.612 42.6353C106.647 32.6136 112.07 17.7372 120.491 0H156.23C96.8256 112.922 183.125 118.906 442.297 44.8906C466.812 38.0258 515.072 19.7151 562.946 0Z" fill="white"/>
</svg>
